<svg width="188" height="32" viewBox="0 0 188 32" fill="none" xmlns="http://www.w3.org/2000/svg">
<path fill-rule="evenodd" clip-rule="evenodd" d="M25.9591 10.7233C26.0721 10.8736 26.1693 11.0356 26.2486 11.2076C30.9256 12.3883 34.3687 16.2955 34.3687 20.921C34.3687 26.4785 29.3984 31 23.2893 31C20.0997 31 17.2213 29.7672 15.198 27.7984H7.51731C5.86426 27.7984 4.51935 26.5749 4.51935 25.0711C4.51935 24.2074 4.96343 23.4368 5.65433 22.9367C4.96343 22.4367 4.51935 21.666 4.51935 20.8023C4.51935 19.9387 4.96343 19.168 5.65433 18.6679C4.96343 18.1679 4.51935 17.3972 4.51935 16.5336C4.51935 15.6699 4.96343 14.8992 5.65433 14.3992C4.96343 13.8991 4.51935 13.1285 4.51935 12.2648C4.51935 10.761 5.86426 9.53753 7.51731 9.53753H9.21702C8.88516 9.09868 8.69042 8.56775 8.69042 7.99603C8.69042 7.42432 8.88522 6.89339 9.21702 6.45453H3.99796C2.34491 6.45453 1 5.23106 1 3.72727C1 2.22348 2.34491 1 3.99796 1H19.9654C21.6184 1 22.9633 2.22348 22.9633 3.72727C22.9633 4.29899 22.7685 4.82991 22.4367 5.26877H27.6558C29.3088 5.26877 30.6537 6.49224 30.6537 7.99603C30.6537 9.49983 29.3088 10.7233 27.6558 10.7233H25.9591ZM29.3503 7.99603C29.3503 7.14607 28.5902 6.45453 27.6558 6.45453H11.6884C10.754 6.45453 9.99388 7.14607 9.99388 7.99603C9.99388 8.84599 10.754 9.53753 11.6884 9.53753H23.4847H27.6558C28.5902 9.53753 29.3503 8.84599 29.3503 7.99603ZM2.30346 3.72727C2.30346 4.57723 3.06357 5.26877 3.99796 5.26877H19.9654C20.8997 5.26877 21.6599 4.57723 21.6599 3.72727C21.6599 2.87731 20.8997 2.18577 19.9654 2.18577H3.99796C3.06357 2.18577 2.30346 2.87731 2.30346 3.72727ZM23.4847 10.7233H7.51731C6.58298 10.7233 5.82281 11.4148 5.82281 12.2648C5.82281 13.1148 6.58298 13.8063 7.51731 13.8063H15.449C17.4559 11.9761 20.2297 10.8419 23.2893 10.8419C23.6042 10.8419 23.9158 10.8546 24.2241 10.8782C23.9986 10.7788 23.7472 10.7233 23.4847 10.7233ZM14.3354 14.9921H7.51731C6.58292 14.9921 5.82281 15.6836 5.82281 16.5336C5.82281 17.3836 6.58292 18.0751 7.51731 18.0751H12.6602C13.0235 16.9542 13.5955 15.9142 14.3354 14.9921ZM12.361 19.2608H7.51731C6.58292 19.2608 5.82281 19.9523 5.82281 20.8023C5.82281 21.6523 6.58292 22.3438 7.51731 22.3438H12.3208C12.2482 21.8788 12.2098 21.4039 12.2098 20.921C12.2098 20.3555 12.2621 19.8011 12.361 19.2608ZM5.82281 25.0711C5.82281 25.9211 6.58292 26.6126 7.51731 26.6126H14.1506C13.4499 25.6845 12.9157 24.645 12.5869 23.5296H7.51731C6.58292 23.5296 5.82281 24.2211 5.82281 25.0711ZM13.5133 20.921C13.5133 25.8247 17.8988 29.8142 23.2893 29.8142C28.6797 29.8142 33.0652 25.8247 33.0652 20.921C33.0652 16.0172 28.6797 12.0277 23.2893 12.0277C17.8988 12.0277 13.5133 16.0172 13.5133 20.921ZM21.6268 18.8945C21.6268 19.6148 22.3712 20.2009 23.2861 20.2009C25.0329 20.2009 26.4539 21.4026 26.4539 22.8797C26.4539 24.1371 25.4241 25.1943 24.0404 25.4812V25.7776C24.0404 26.1565 23.7026 26.4637 23.2861 26.4637C22.8696 26.4637 22.5319 26.1565 22.5319 25.7776V25.4812C21.1482 25.1943 20.1184 24.1371 20.1184 22.8797C20.1184 22.5008 20.4561 22.1936 20.8726 22.1936C21.2891 22.1936 21.6268 22.5008 21.6268 22.8797C21.6268 23.6002 22.3712 24.1863 23.2861 24.1863C24.2011 24.1863 24.9454 23.6002 24.9454 22.8797C24.9454 22.1593 24.2011 21.5732 23.2861 21.5732C21.5394 21.5732 20.1184 20.3715 20.1184 18.8945C20.1184 17.6371 21.1482 16.5799 22.5319 16.293V15.9361C22.5319 15.5573 22.8696 15.25 23.2861 15.25C23.7026 15.25 24.0404 15.5573 24.0404 15.9361V16.293C25.4241 16.5799 26.4539 17.6371 26.4539 18.8945C26.4539 19.2733 26.1162 19.5806 25.6997 19.5806C25.2832 19.5806 24.9454 19.2733 24.9454 18.8945C24.9454 18.174 24.2011 17.5879 23.2861 17.5879C22.3712 17.5879 21.6268 18.174 21.6268 18.8945Z" fill="#FF872C"/>
</svg>
